<svg width="24" height="24" viewBox="0 0 24 24" fill="none" xmlns="http://www.w3.org/2000/svg">
<path d="M16.563 10.5625C16.563 13.1513 14.5202 15.25 12.0002 15.25C9.48031 15.25 7.4375 13.1513 7.4375 10.5625C7.4375 7.97366 9.48031 5.875 12.0002 5.875C14.5202 5.875 16.563 7.97366 16.563 10.5625Z" fill="#F2F2F2"/>
<path d="M5.58959 14.3648C5.20179 14.5948 5.06576 15.1071 5.32679 15.4809C6.00558 16.453 6.87976 17.2683 7.89355 17.8696C9.14207 18.6101 10.5583 19 12 19C13.4417 19 14.8579 18.6101 16.1065 17.8696C17.1203 17.2683 17.9944 16.453 18.6732 15.4809C18.9343 15.1071 18.7982 14.5948 18.4104 14.3648V14.3648C18.0226 14.1347 17.5305 14.2751 17.2607 14.6423C16.7303 15.3641 16.0628 15.9718 15.2957 16.4268C14.2936 17.0211 13.157 17.334 12 17.334C10.843 17.334 9.70637 17.0211 8.70436 16.4268C7.93723 15.9718 7.26971 15.3641 6.73931 14.6423C6.46952 14.2751 5.9774 14.1347 5.58959 14.3648V14.3648Z" fill="#F2F2F2"/>
<path d="M22.5004 12.6204C23.2796 12.4471 23.2454 11.6111 22.8651 10.8913C22.0659 9.37863 20.8164 8.04935 19.222 7.03418C17.1502 5.71503 14.6117 5 12.0002 5C9.38876 5 6.85026 5.71502 4.77843 7.03418C3.18404 8.04934 1.9346 9.37862 1.13538 10.8913C0.755051 11.6111 0.720792 12.4471 1.5 12.6204C2.16946 12.7692 2.66877 12.6157 3.00041 12C3.61673 10.8558 5.22949 9.60123 6.43971 8.83067C8.03494 7.81497 9.9895 10.8913 12.0002 10.8913C14.011 10.8913 15.9655 7.81497 17.5608 8.83067C18.771 9.60124 20.3841 10.8558 21.0004 12C21.332 12.6157 21.8309 12.7692 22.5004 12.6204Z" fill="#F2F2F2"/>
</svg>
