<svg width="24" height="24" viewBox="0 0 24 24" fill="none" xmlns="http://www.w3.org/2000/svg">
<path d="M13 4H6C4.34315 4 3 5.34315 3 7V17C3 18.6569 4.34315 20 6 20H13" stroke="#F2F2F2" stroke-width="1.5" stroke-linecap="round"/>
<path d="M12 11.25C11.5858 11.25 11.25 11.5858 11.25 12C11.25 12.4142 11.5858 12.75 12 12.75L12 11.25ZM21.5303 12.5303C21.8232 12.2374 21.8232 11.7626 21.5303 11.4697L16.7574 6.6967C16.4645 6.40381 15.9896 6.40381 15.6967 6.6967C15.4038 6.98959 15.4038 7.46447 15.6967 7.75736L19.9393 12L15.6967 16.2426C15.4038 16.5355 15.4038 17.0104 15.6967 17.3033C15.9896 17.5962 16.4645 17.5962 16.7574 17.3033L21.5303 12.5303ZM12 12.75L21 12.75L21 11.25L12 11.25L12 12.75Z" fill="#F2F2F2"/>
</svg>
