<svg width="24" height="24" viewBox="0 0 24 24" fill="none" xmlns="http://www.w3.org/2000/svg">
<path d="M7.625 7.5V7.12306C7.625 5.77831 8.5777 4.62204 9.89761 4.36482V4.36482C11.1352 4.12366 12.4065 4.11168 13.6484 4.32949L13.8932 4.37243C15.3283 4.62411 16.375 5.87041 16.375 7.32733V7.5" stroke="#F2F2F2" stroke-opacity="0.5" stroke-width="2" stroke-linecap="round" stroke-linejoin="round"/>
<path fill-rule="evenodd" clip-rule="evenodd" d="M7.27244 10.4374C6.07087 10.2722 5 11.2059 5 12.4188V16.6766C5 17.6255 5.66671 18.4437 6.596 18.6354L11.394 19.625C11.7938 19.7075 12.2062 19.7075 12.606 19.625L17.404 18.6354C18.3333 18.4437 19 17.6255 19 16.6766V12.4188C19 11.2059 17.9291 10.2722 16.7276 10.4375L12.2724 11.05C12.0917 11.0749 11.9083 11.0749 11.7276 11.05L7.27244 10.4374ZM13.7499 14.4999C13.7499 15.1477 13.398 15.7132 12.8749 16.0158V17.1249C12.8749 17.6082 12.4832 17.9999 11.9999 17.9999C11.5167 17.9999 11.1249 17.6082 11.1249 17.1249V16.0158C10.6018 15.7132 10.2499 15.1477 10.2499 14.4999C10.2499 13.5334 11.0334 12.7499 11.9999 12.7499C12.9664 12.7499 13.7499 13.5334 13.7499 14.4999Z" fill="#F2F2F2" fill-opacity="0.5"/>
</svg>
