<svg width="24" height="24" viewBox="0 0 24 24" fill="none" xmlns="http://www.w3.org/2000/svg">
<path fill-rule="evenodd" clip-rule="evenodd" d="M12 2C6.47715 2 2 6.47715 2 12C2 17.5228 6.47715 22 12 22C17.5228 22 22 17.5228 22 12C22 6.47715 17.5228 2 12 2ZM17.2088 10.2054C17.5984 9.81395 17.5969 9.18079 17.2054 8.7912C16.8139 8.40161 16.1808 8.40313 15.7912 8.79459L11.0263 13.5824L9.2088 11.7561C8.81921 11.3647 8.18605 11.3632 7.79459 11.7527C7.40313 12.1423 7.40161 12.7755 7.7912 13.1669L10.3175 15.7054C10.5052 15.894 10.7603 16 11.0263 16C11.2924 16 11.5474 15.894 11.7351 15.7054L17.2088 10.2054Z" fill="#29A3D8"/>
</svg>
