<svg width="24" height="24" viewBox="0 0 24 24" fill="none" xmlns="http://www.w3.org/2000/svg">
<path d="M3 18V9C3 6.23858 5.23858 4 8 4H17" stroke="#2D2D2E" stroke-width="2" stroke-linecap="round"/>
<path fill-rule="evenodd" clip-rule="evenodd" d="M8.01982 6C6.35202 6 5 7.33947 5 8.99178V19.0082C5 20.6605 6.35202 22 8.01982 22H18.9802C20.648 22 22 20.6605 22 19.0082V8.99177C22 7.33946 20.648 6 18.9802 6H8.01982ZM7.22209 10.0109C7.22209 8.90635 8.11752 8.01092 9.22209 8.01092H12.6108C13.7153 8.01092 14.6108 8.90635 14.6108 10.0109V13.0302C14.6108 14.1347 13.7153 15.0302 12.6108 15.0302H9.22209C8.11752 15.0302 7.22209 14.1347 7.22209 13.0302V10.0109ZM7.72209 17.0386C7.44595 17.0386 7.22209 17.2625 7.22209 17.5386C7.22209 17.8148 7.44595 18.0386 7.72209 18.0386H19.3884C19.6645 18.0386 19.8884 17.8148 19.8884 17.5386C19.8884 17.2625 19.6645 17.0386 19.3884 17.0386H7.72209ZM7.72209 19.044C7.44595 19.044 7.22209 19.2679 7.22209 19.544C7.22209 19.8202 7.44595 20.044 7.72209 20.044H16.2218C16.498 20.044 16.7218 19.8202 16.7218 19.544C16.7218 19.2679 16.498 19.044 16.2218 19.044H7.72209ZM18.2257 8.01092C17.395 8.01092 16.7216 8.68434 16.7216 9.51504C16.7216 10.3457 17.395 11.0192 18.2257 11.0192H18.384C19.2147 11.0192 19.8881 10.3457 19.8881 9.51504C19.8881 8.68434 19.2147 8.01092 18.384 8.01092H18.2257Z" fill="#2D2D2E"/>
</svg>
