<svg width="24" height="24" viewBox="0 0 24 24" fill="none" xmlns="http://www.w3.org/2000/svg">
<rect x="10.9277" y="19.5713" width="2.14306" height="2.92892" rx="1.07153" fill="#2D2D2E" stroke="#2D2D2E"/>
<rect x="22.5" y="10.9282" width="2.14313" height="2.92883" rx="1.07157" transform="rotate(90 22.5 10.9282)" fill="#2D2D2E" stroke="#2D2D2E"/>
<rect x="-1.06065" width="1.6431" height="3.12146" rx="0.821549" transform="matrix(-0.707099 0.707115 -0.707099 -0.707115 18.8212 19.1587)" fill="#2D2D2E" stroke="#2D2D2E" stroke-width="1.5"/>
<rect x="-5.96046e-08" y="-0.707115" width="2.1431" height="3.5259" rx="1.07155" transform="matrix(-0.707099 -0.707115 0.707099 -0.707115 6.0791 19.3585)" fill="#2D2D2E" stroke="#2D2D2E"/>
<rect x="-5.96046e-08" y="-0.707115" width="2.1431" height="3.5259" rx="1.07155" transform="matrix(-0.707099 -0.707115 0.707099 -0.707115 17.8643 7.47329)" fill="#2D2D2E" stroke="#2D2D2E"/>
<rect x="4.42871" y="10.9282" width="2.14313" height="2.92883" rx="1.07157" transform="rotate(90 4.42871 10.9282)" fill="#2D2D2E" stroke="#2D2D2E"/>
<rect x="-0.707099" width="2.1431" height="3.62146" rx="1.07155" transform="matrix(-0.707099 0.707115 -0.707099 -0.707115 6.85444 7.12256)" fill="#2D2D2E" stroke="#2D2D2E"/>
<rect x="10.9277" y="1.49805" width="2.14306" height="2.92892" rx="1.07153" fill="#2D2D2E" stroke="#2D2D2E"/>
<mask id="path-9-inside-1_717_402" fill="white">
<path d="M20.6443 12.0003C20.6443 16.774 16.7745 20.6439 12.0008 20.6439C7.22722 20.6439 3.35742 16.774 3.35742 12.0003C3.35742 7.22657 7.22722 3.35669 12.0008 3.35669C16.7745 3.35669 20.6443 7.22657 20.6443 12.0003ZM6.0438 12.0003C6.0438 15.2904 8.71086 17.9575 12.0008 17.9575C15.2908 17.9575 17.9579 15.2904 17.9579 12.0003C17.9579 8.71025 15.2908 6.04313 12.0008 6.04313C8.71086 6.04313 6.0438 8.71025 6.0438 12.0003Z"/>
</mask>
<path d="M20.6443 12.0003C20.6443 16.774 16.7745 20.6439 12.0008 20.6439C7.22722 20.6439 3.35742 16.774 3.35742 12.0003C3.35742 7.22657 7.22722 3.35669 12.0008 3.35669C16.7745 3.35669 20.6443 7.22657 20.6443 12.0003ZM6.0438 12.0003C6.0438 15.2904 8.71086 17.9575 12.0008 17.9575C15.2908 17.9575 17.9579 15.2904 17.9579 12.0003C17.9579 8.71025 15.2908 6.04313 12.0008 6.04313C8.71086 6.04313 6.0438 8.71025 6.0438 12.0003Z" fill="#2D2D2E" stroke="#2D2D2E" stroke-width="2" mask="url(#path-9-inside-1_717_402)"/>
</svg>
