<svg width="24" height="24" viewBox="0 0 24 24" fill="none" xmlns="http://www.w3.org/2000/svg">
<path d="M23 12C23 18.0751 18.0751 23 12 23C5.92487 23 1 18.0751 1 12C1 5.92487 5.92487 1 12 1C18.0751 1 23 5.92487 23 12ZM2.86312 12C2.86312 17.0462 6.95384 21.1369 12 21.1369C17.0462 21.1369 21.1369 17.0462 21.1369 12C21.1369 6.95384 17.0462 2.86312 12 2.86312C6.95384 2.86312 2.86312 6.95384 2.86312 12Z" fill="#2D2D2E"/>
<line x1="12" y1="7" x2="12" y2="14" stroke="#2D2D2E" stroke-width="2" stroke-linecap="round"/>
<circle cx="12" cy="18" r="1" fill="#2D2D2E" stroke="#2D2D2E" stroke-width="0.5"/>
</svg>
