<svg width="22" height="22" viewBox="0 0 22 22" fill="none" xmlns="http://www.w3.org/2000/svg">
<path d="M17.6432 3.9965C18.2469 3.65261 19.004 4.04858 19.066 4.7406V4.7406C19.0934 5.04682 18.9716 5.34748 18.7387 5.54827L16.6881 7.31693C16.1063 7.81864 15.4754 8.2603 14.8049 8.63519L13.681 9.26356C13.012 9.63761 12.17 9.46558 11.7013 8.8591V8.8591C11.0506 8.01712 11.4242 6.78486 12.4329 6.44592L13.7715 5.99609C14.3576 5.79916 14.9231 5.54593 15.4603 5.23993L17.6432 3.9965Z" fill="#F2F2F2"/>
<path d="M7.81679 9.80836C7.39601 8.04506 8.62321 6.31428 10.4264 6.12791L10.9267 6.07619C13.3094 5.82992 15.0056 8.33783 13.8899 10.4575L11.9912 14.0651C11.6885 14.6403 11.0923 15.0008 10.4423 15.0017V15.0017C9.63005 15.0028 8.92343 14.4457 8.73489 13.6556L7.81679 9.80836Z" fill="#F2F2F2"/>
<path d="M13.4162 3.66369C13.4162 5.1348 12.2237 7.08843 10.7526 7.08843C9.28144 7.08843 8.08887 5.1348 8.08887 3.66369C8.08887 2.19257 9.28144 1 10.7526 1C12.2237 1 13.4162 2.19257 13.4162 3.66369Z" fill="#F2F2F2"/>
<path d="M8.4649 6.55626C9.36716 6.04849 10.508 6.50075 10.8172 7.48881V7.48881C11.0845 8.34252 10.6129 9.25193 9.76113 9.52539L8.36663 9.97311C7.60932 10.2162 6.87893 10.5364 6.18692 10.9285L3.90142 12.2235C3.47173 12.467 2.92877 12.3617 2.62115 11.9754V11.9754C2.2773 11.5435 2.34668 10.915 2.77646 10.5685L5.36826 8.47908C5.86071 8.08208 6.38526 7.72664 6.93651 7.41641L8.4649 6.55626Z" fill="#F2F2F2"/>
<path d="M15.2951 11.9151C14.3817 11.6494 13.1532 11.637 11.9191 11.803C8.95818 12.2011 6.99299 14.6848 5.73542 17.3948L5.21994 18.5057C5.19869 18.5515 5.18011 18.6006 5.16713 18.6494C4.81429 19.9751 5.65347 20.1999 6.17537 20.2179C6.41966 20.2263 6.63755 20.0919 6.79008 19.9009L8.81573 17.3643C9.54173 16.4551 10.5164 15.7767 11.621 15.4115L12.9132 14.9844C13.229 14.88 13.5569 15.1074 13.5697 15.4398L13.6696 18.0268C13.6867 18.4709 14.032 18.8328 14.4748 18.8707C14.8932 18.9065 15.2789 18.6426 15.4051 18.242C16.1712 15.8092 17.3552 12.5144 15.2951 11.9151Z" fill="#F2F2F2"/>
</svg>
