<svg width="24" height="24" viewBox="0 0 24 24" fill="none" xmlns="http://www.w3.org/2000/svg">
<path d="M13.0491 5.90909L12.8829 15.2351H11.1123L10.9461 5.90909H13.0491ZM12.0008 19.1214C11.6471 19.1214 11.3445 18.9979 11.0931 18.7507C10.8417 18.4993 10.7181 18.1967 10.7224 17.843C10.7181 17.4936 10.8417 17.1953 11.0931 16.9482C11.3445 16.6967 11.6471 16.571 12.0008 16.571C12.346 16.571 12.6443 16.6967 12.8957 16.9482C13.1471 17.1953 13.2749 17.4936 13.2792 17.843C13.2749 18.0774 13.2132 18.2926 13.0938 18.4886C12.9788 18.6804 12.8254 18.8338 12.6336 18.9489C12.4419 19.0639 12.2309 19.1214 12.0008 19.1214Z" fill="#2D2D2E"/>
<path d="M23 12C23 18.0751 18.0751 23 12 23C5.92487 23 1 18.0751 1 12C1 5.92487 5.92487 1 12 1C18.0751 1 23 5.92487 23 12ZM2.86312 12C2.86312 17.0462 6.95384 21.1369 12 21.1369C17.0462 21.1369 21.1369 17.0462 21.1369 12C21.1369 6.95384 17.0462 2.86312 12 2.86312C6.95384 2.86312 2.86312 6.95384 2.86312 12Z" fill="#2D2D2E"/>
</svg>
