<svg width="24" height="24" viewBox="0 0 24 24" fill="none" xmlns="http://www.w3.org/2000/svg">
<path d="M6.8125 7.49894V7.31116C6.8125 5.86131 7.84936 4.61892 9.27582 4.35955L9.38402 4.33988C10.621 4.11496 11.8875 4.10378 13.1283 4.30683L13.672 4.3958C15.1225 4.63318 16.1875 5.88657 16.1875 7.35642V7.49894" stroke="#2D2D2E" stroke-opacity="0.5" stroke-width="2" stroke-linecap="round" stroke-linejoin="round"/>
<path fill-rule="evenodd" clip-rule="evenodd" d="M6.2545 10.4123C5.05871 10.2589 4 11.1905 4 12.3961V16.65C4 17.6089 4.68049 18.4328 5.62205 18.614L10.9331 19.6361C11.3076 19.7081 11.6924 19.7081 12.0669 19.6361L17.3779 18.614C18.3195 18.4328 19 17.6089 19 16.65V12.3961C19 11.1905 17.9413 10.2589 16.7455 10.4123L11.7545 11.0526C11.5855 11.0743 11.4145 11.0743 11.2455 11.0526L6.2545 10.4123ZM13.375 14.4969C13.375 15.1444 12.9979 15.7098 12.4375 16.0123V17.0583C12.4375 17.5761 12.0178 17.9958 11.5 17.9958C10.9822 17.9958 10.5625 17.5761 10.5625 17.0583V16.0123C10.0021 15.7098 9.625 15.1444 9.625 14.4969C9.625 13.5307 10.4645 12.7474 11.5 12.7474C12.5355 12.7474 13.375 13.5307 13.375 14.4969Z" fill="#2D2D2E" fill-opacity="0.5"/>
</svg>
