<svg width="31" height="31" viewBox="0 0 31 31" fill="none" xmlns="http://www.w3.org/2000/svg">
<path fill-rule="evenodd" clip-rule="evenodd" d="M7.83309 12.891C7.2139 12.3369 6.3963 12 5.5 12C3.567 12 2 13.567 2 15.5C2 17.433 3.567 19 5.5 19C6.3963 19 7.2139 18.6631 7.83309 18.109C7.30854 17.3731 7 16.4726 7 15.5C7 14.5274 7.30854 13.6269 7.83309 12.891Z" fill="#5480F1"/>
<path fill-rule="evenodd" clip-rule="evenodd" d="M16.4997 12.1456C15.7036 11.4332 14.6524 11 13.5 11C11.0147 11 9 13.0147 9 15.5C9 17.9853 11.0147 20 13.5 20C14.6524 20 15.7037 19.5668 16.4998 18.8543C15.8254 17.9081 15.4287 16.7503 15.4287 15.4999C15.4287 14.2495 15.8254 13.0917 16.4997 12.1456Z" fill="#5480F1"/>
<circle cx="23.5" cy="15.5" r="5.5" fill="#5480F1"/>
</svg>
